PathFileType	4	(X/Y/Z)	./resultDataOpenSim/trcMotMarkerGrf/sub10/qtm-01-04.trc
DataRate	CameraRate	NumFrames	NumMarkers	Units	OrigDataRate	OrigDataStartFrame	OrigNumFrames
250.000000	250.000000	14	24	m	250.000000	234	467
Frame#	Time	L.Toe.Tip			R.Toe.Tip			L.Ankle.Lat			R.Ankle.Lat			L.Ankle.Med			R.Ankle.Med			L.Heel			R.Heel			L.Knee.Lat			R.Knee.Lat			L.Knee.Med			R.Knee.Med			L.Thigh.Upper			R.Thigh.Upper			L.ASIS			R.ASIS			V.Sacral			L.Acromium			R.Acromium			C7			L.Elbow			R.Elbow			L.Wrist.Lat			R.Wrist.Lat
		X1	Y1	Z1	X2	Y2	Z2	X3	Y3	Z3	X4	Y4	Z4	X5	Y5	Z5	X6	Y6	Z6	X7	Y7	Z7	X8	Y8	Z8	X9	Y9	Z9	X10	Y10	Z10	X11	Y11	Z11	X12	Y12	Z12	X13	Y13	Z13	X14	Y14	Z14	X15	Y15	Z15	X16	Y16	Z16	X17	Y17	Z17	X18	Y18	Z18	X19	Y19	Z19	X20	Y20	Z20	X21	Y21	Z21	X22	Y22	Z22	X23	Y23	Z23	X24	Y24	Z24

234	0.932	0.04722199	0.042368386	-0.10782424	0.29029813	0.067900166	0.035471267	-0.086399833	0.068826342	-0.14204194	0.14801237	0.093399513	0.036220794	-0.079431053	0.095929312	-0.059500684	0.19209901	0.11694309	-0.038984969	-0.15406022	0.043995372	-0.098460559	0.11242127	0.066979738	-0.022414541	-0.0097195245	0.44772591	-0.19395927	0.21390314	0.49101369	0.054633269	-0.015533704	0.43329422	-0.071332374	0.24880276	0.50060968	-0.069472524	0.043253259	0.84109377	-0.272686	0.038922964	0.86311025	0.10214953	0.098196361	0.95178694	-0.20716202	0.11069742	0.95879955	0.033097286	-0.097002365	0.97034788	-0.085910835	0.040232433	1.4289071	-0.23545963	0.026084665	1.4129675	0.089705456	-0.050415487	1.4505434	-0.082693199	0.0091820156	1.08348	-0.30386063	-0.091962609	1.0899085	0.12923715	0.19575732	0.92392343	-0.31668356	-0.0035494389	0.86585896	0.1785453
235	0.936	0.047196137	0.042332372	-0.10774455	0.31044463	0.069055093	0.035178008	-0.086290884	0.068967565	-0.14191791	0.16754952	0.090042287	0.03490916	-0.07919686	0.09609838	-0.059269935	0.21123384	0.11511834	-0.039840886	-0.15394998	0.04427359	-0.098014126	0.13306534	0.06269995	-0.023889988	-0.0083057368	0.44759093	-0.19404622	0.2211794	0.4904388	0.054571043	-0.01386141	0.43321403	-0.071452358	0.25559883	0.50016807	-0.069591577	0.046940368	0.84067476	-0.27315783	0.046096092	0.86308021	0.10208962	0.10317196	0.95126288	-0.2077836	0.11732269	0.95834005	0.032468496	-0.090806789	0.96987362	-0.081391875	0.045861849	1.428389	-0.23565268	0.031874109	1.4123137	0.089566865	-0.044565474	1.449909	-0.082823155	0.017660689	1.0825371	-0.30415695	-0.088238791	1.090231	0.12876231	0.2070753	0.92608618	-0.31621303	-0.0030280041	0.86516755	0.17829264
236	0.94	0.047237139	0.042309058	-0.10773906	0.33045002	0.070439051	0.034768505	-0.086280521	0.069091493	-0.14159642	0.18700206	0.087023064	0.033586778	-0.078980901	0.096285484	-0.059003877	0.23027574	0.11358507	-0.040783672	-0.15382392	0.04453643	-0.097482841	0.15368585	0.058791827	-0.025432875	-0.0068537203	0.44744394	-0.19412407	0.22825335	0.48957101	0.054549597	-0.012021948	0.43309346	-0.071597402	0.26225248	0.49949545	-0.069621663	0.050671007	0.84021029	-0.27361768	0.053646327	0.86302979	0.10218643	0.10822682	0.9507516	-0.20837582	0.12397783	0.95778487	0.031850433	-0.084825868	0.96943695	-0.077397981	0.051530921	1.4277911	-0.23585153	0.037678202	1.4115731	0.089421109	-0.038708764	1.4492026	-0.082959194	0.02610179	1.0815461	-0.30435982	-0.084570808	1.0904818	0.12830671	0.21832952	0.92823468	-0.31571798	-0.0024064453	0.86447989	0.17802985
237	0.944	0.0473765	0.042293323	-0.10782964	0.350304	0.072085407	0.034221586	-0.086291957	0.069218803	-0.14112641	0.20640841	0.084310988	0.032251789	-0.078766487	0.096483821	-0.058709888	0.24918681	0.11233525	-0.041800577	-0.15369584	0.044793371	-0.096924648	0.1742151	0.055258438	-0.026948315	-0.0053454077	0.44728034	-0.19420348	0.23515653	0.4884082	0.054599054	-0.010014418	0.43292572	-0.071743704	0.26874625	0.49859454	-0.069543897	0.054585604	0.83971115	-0.27394575	0.061325506	0.86286731	0.10231047	0.11319009	0.95019648	-0.20903439	0.13067275	0.95713828	0.031239271	-0.078864962	0.96875068	-0.07485783	0.057241476	1.4271206	-0.23605864	0.043490859	1.4107507	0.089268744	-0.032846581	1.4484248	-0.083105404	0.034562876	1.0805091	-0.30459456	-0.080858726	1.0906521	0.1278513	0.2295266	0.93037137	-0.31519023	-0.0016468224	0.86380697	0.17776968
238	0.948	0.047557127	0.042281377	-0.10794917	0.37000411	0.074005991	0.033499551	-0.08628025	0.069359501	-0.1405852	0.22583043	0.08184951	0.030874141	-0.078522741	0.096675159	-0.058396805	0.26791293	0.11133484	-0.042904542	-0.15358338	0.045054811	-0.096384716	0.19460648	0.052092257	-0.02837154	-0.0037692616	0.44709326	-0.19429153	0.24193159	0.48696637	0.054742012	-0.0078688053	0.43271476	-0.071850038	0.27507725	0.49746808	-0.069349563	0.058666176	0.83917059	-0.27407951	0.069130569	0.86257654	0.1024553	0.11795547	0.94954325	-0.20982178	0.13741271	0.95640244	0.03062923	-0.073018057	0.96764053	-0.074156518	0.062988408	1.4263777	-0.23627444	0.049313402	1.4098544	0.089112927	-0.026979397	1.4475743	-0.083263229	0.043113025	1.0794263	-0.30497188	-0.077001769	1.0907403	0.12736302	0.2406808	0.93249995	-0.31461518	-0.00077120174	0.863142	0.17751391
239	0.952	0.04769756	0.042281718	-0.10801581	0.38954848	0.07617463	0.032553353	-0.08624372	0.069509847	-0.14006163	0.24527307	0.079605472	0.029440389	-0.078239275	0.096847852	-0.058067197	0.28640194	0.11058529	-0.044109345	-0.15349259	0.045323299	-0.095861044	0.21483694	0.049280965	-0.029702669	-0.0021170867	0.44687717	-0.19438968	0.24862995	0.48527985	0.054989609	-0.0056104698	0.43246347	-0.071891519	0.28127198	0.49612579	-0.069048287	0.062696796	0.83854291	-0.27403083	0.077258637	0.86220645	0.10271968	0.12258109	0.94878637	-0.21070218	0.14419663	0.95557837	0.030018667	-0.067497969	0.96619062	-0.075076427	0.068766261	1.425553	-0.23649622	0.055151644	1.4088861	0.088955369	-0.021102872	1.4466526	-0.083429876	0.051714417	1.0782877	-0.30541064	-0.073009666	1.0907633	0.12683624	0.25179078	0.93461717	-0.31399286	0.00017693415	0.86247119	0.17725292
240	0.956	0.047772859	0.04229728	-0.10800875	0.40891998	0.078553413	0.031339081	-0.086179831	0.069652293	-0.13963144	0.26465836	0.077604443	0.027985863	-0.077932316	0.097001322	-0.057722079	0.30461889	0.110121	-0.045395192	-0.15341632	0.04559647	-0.095329634	0.23489311	0.046815619	-0.030976575	-0.00038024026	0.44663109	-0.19449282	0.25529585	0.48339281	0.055334703	-0.0032360258	0.43216389	-0.071879947	0.28738258	0.49458903	-0.06866719	0.066470085	0.83778195	-0.27383517	0.085695038	0.86175327	0.10309149	0.12719102	0.94795419	-0.21159694	0.15101909	0.9546685	0.029406948	-0.062071036	0.96455836	-0.076782661	0.074578142	1.4246387	-0.23672202	0.061008375	1.4078448	0.088792422	-0.015212287	1.4456658	-0.083601924	0.060284949	1.0770875	-0.30577463	-0.068991085	1.0907434	0.12629019	0.26282917	0.93671003	-0.31334972	0.0011737202	0.86178877	0.17697007
241	0.96	0.047811986	0.042300689	-0.1079444	0.42808431	0.081132197	0.029829816	-0.086059339	0.069765444	-0.13933248	0.28387098	0.07591218	0.026583845	-0.077621446	0.097141016	-0.057360292	0.32254778	0.10995926	-0.046706946	-0.15334449	0.04587235	-0.094778231	0.25475882	0.044695589	-0.032211528	0.0014526419	0.44635562	-0.19458757	0.26195026	0.48134629	0.05575268	-0.00072420693	0.4318071	-0.071845495	0.29345483	0.49288302	-0.068241596	0.070025266	0.83691929	-0.27363462	0.094031239	0.86110722	0.10335212	0.13183878	0.94707062	-0.21247068	0.157879	0.95367757	0.028791817	-0.056161389	0.962776	-0.078020122	0.080435762	1.423638	-0.23695546	0.066888638	1.4067332	0.08861828	-0.0093083715	1.4446225	-0.083779094	0.068796094	1.0758374	-0.30603727	-0.065057931	1.090691	0.12574601	0.27376549	0.93876657	-0.31271697	0.0022247224	0.86109438	0.17665598
242	0.964	0.047858229	0.042236254	-0.10781408	0.44700072	0.083934852	0.028026036	-0.085858873	0.069844897	-0.1391514	0.30284991	0.074567378	0.025288183	-0.077306283	0.097271246	-0.056977413	0.34018752	0.11008615	-0.047983202	-0.15327301	0.046153388	-0.094217926	0.27441241	0.04292166	-0.033395243	0.0033955025	0.44604755	-0.1946574	0.26859689	0.4791738	0.056213403	0.0019510942	0.43139184	-0.071811356	0.29950724	0.49102581	-0.067808174	0.073655796	0.83607516	-0.27375197	0.10187753	0.86016288	0.10329219	0.13651354	0.94614788	-0.21333351	0.16478485	0.95261248	0.028174351	-0.049578736	0.96080302	-0.077990768	0.086347393	1.4225615	-0.23720399	0.07280623	1.4055552	0.088430531	-0.0033947293	1.4435295	-0.083966273	0.077265161	1.0745516	-0.30624419	-0.06124081	1.0905995	0.12520879	0.28459455	0.94078539	-0.31210192	0.003357196	0.86038607	0.17631869
243	0.968	0.047950998	0.042056393	-0.10759459	0.46562682	0.086994954	0.025960333	-0.085602151	0.069913452	-0.13901998	0.32161353	0.073553902	0.024111065	-0.076967657	0.097392477	-0.056570561	0.35754364	0.11048046	-0.049182867	-0.15320475	0.046448364	-0.093677627	0.29382647	0.04148754	-0.034502601	0.005464375	0.4456992	-0.19469006	0.27524142	0.47690401	0.056688246	0.0048090231	0.43091347	-0.071782976	0.30554163	0.48902807	-0.067402638	0.077605576	0.83534066	-0.27441508	0.10929633	0.85893914	0.10293535	0.14119721	0.94519146	-0.21420318	0.17174458	0.95148108	0.027560348	-0.042884826	0.95870483	-0.076887602	0.092311413	1.4214175	-0.23746842	0.078775543	1.4043119	0.088230125	0.0025272275	1.4423912	-0.0841708	0.085705643	1.073234	-0.30642294	-0.057468407	1.090446	0.12466104	0.29533288	0.94277008	-0.31149091	0.0045886226	0.8596606	0.17597095
244	0.972	0.048119667	0.041785193	-0.10735453	0.48392141	0.090332041	0.023678672	-0.085340621	0.069997994	-0.13885548	0.34018525	0.072839696	0.023048966	-0.076588852	0.097503889	-0.056142233	0.37461276	0.11112703	-0.050286519	-0.15314299	0.046766286	-0.093173494	0.3129704	0.040378192	-0.035509431	0.007673939	0.4453021	-0.19467887	0.28189486	0.47456196	0.057148648	0.0078412245	0.43035409	-0.071741725	0.31155659	0.48689986	-0.06705501	0.081779807	0.83466442	-0.27539784	0.11664483	0.85754023	0.1024593	0.14586874	0.94419725	-0.2150871	0.17875035	0.95028995	0.026953689	-0.037161887	0.95671186	-0.074981011	0.098322274	1.4202098	-0.23773774	0.084799582	1.4030052	0.088019751	0.0084577623	1.44121	-0.084394594	0.094097209	1.0718824	-0.30655802	-0.053630452	1.090203	0.1240752	0.30599437	0.94472032	-0.31087195	0.0058744706	0.85891081	0.17560334
245	0.976	0.048365792	0.041537063	-0.10728209	0.50184922	0.093945543	0.021220172	-0.085100569	0.070101917	-0.13862064	0.35853804	0.07240888	0.022094807	-0.076167976	0.097604925	-0.055699427	0.39137472	0.1120103	-0.051282907	-0.15308256	0.047109816	-0.09267884	0.33181418	0.039571936	-0.036399987	0.010034554	0.44485162	-0.19462156	0.288561	0.4721713	0.05756849	0.010993505	0.42969238	-0.071634229	0.31755389	0.48465693	-0.066783426	0.085850863	0.83390374	-0.27614469	0.12417287	0.85604588	0.1019959	0.15049688	0.9431548	-0.21597858	0.18578602	0.94904374	0.026353673	-0.033599344	0.95512286	-0.071771381	0.10437725	1.4189404	-0.23800122	0.090863526	1.4016437	0.087803723	0.014399462	1.4399879	-0.084629675	0.10239502	1.0704989	-0.30660207	-0.049679277	1.0898665	0.12343578	0.31657851	0.94663382	-0.31024275	0.0070985343	0.85811992	0.17518018
246	0.98	0.048652222	0.041409757	-0.10749346	0.51937732	0.09782404	0.01862923	-0.084871195	0.070211705	-0.13832625	0.37661544	0.072256516	0.021241226	-0.07570464	0.097692709	-0.055251848	0.40779959	0.11310219	-0.052162094	-0.15301083	0.047480854	-0.092148585	0.35033193	0.039044965	-0.03717373	0.012550622	0.44434926	-0.19452239	0.29523717	0.46976204	0.05793457	0.014158534	0.42892853	-0.071385279	0.32354488	0.48232343	-0.066596337	0.089554973	0.83296138	-0.27624456	0.13190758	0.85447388	0.10157448	0.15506283	0.94206022	-0.21686166	0.19285909	0.94774685	0.025763194	-0.032581433	0.95408014	-0.066807363	0.11047817	1.4176089	-0.2382633	0.096943792	1.40024	0.087587437	0.020360087	1.4387289	-0.084865237	0.11059622	1.0690947	-0.30651171	-0.045665202	1.0894702	0.12273916	0.32707871	0.94851099	-0.30960234	0.0081980902	0.85727983	0.17468415
247	0.984	0.048925402	0.041380748	-0.10788316	0.53647337	0.10194826	0.015982829	-0.084631483	0.070319325	-0.13799393	0.39436327	0.072380023	0.020493913	-0.075187998	0.097765594	-0.054816259	0.42385597	0.11436076	-0.052920925	-0.15291697	0.047886492	-0.091569198	0.36850882	0.038773293	-0.037844099	0.015218432	0.44380229	-0.1943978	0.30192599	0.46737242	0.058251597	0.017219887	0.42811972	-0.07098236	0.32954898	0.47993009	-0.066501837	0.092846396	0.83186283	-0.27574077	0.13978039	0.85280875	0.10117691	0.15959748	0.94092623	-0.21771808	0.20001151	0.94640597	0.025196835	-0.0325392	0.95332327	-0.060957758	0.11662927	1.4162134	-0.23853468	0.10303283	1.3988035	0.087374775	0.026346008	1.4374389	-0.085099189	0.11880398	1.0676961	-0.3062724	-0.041671856	1.0890577	0.12197329	0.33749138	0.95035335	-0.30894672	0.0093200203	0.8564239	0.17416361
